<svg xmlns="http://www.w3.org/2000/svg" width="88" height="44" fill="none"><g clip-path="url(#a)" filter="url(#b)"><circle cx="33" cy="11" r="10" fill="#fff"/><circle cx="33" cy="11" r="10" fill="#F81F2C" fill-opacity=".1"/><circle cx="33" cy="11" r="9.5" stroke="#F81F2C"/></g><g clip-path="url(#c)" filter="url(#d)"><circle cx="55" cy="11" r="10" fill="#fff"/><circle cx="55" cy="11" r="10" fill="#F81F2C" fill-opacity=".1"/><circle cx="55" cy="11" r="9.5" stroke="#F81F2C"/></g><g clip-path="url(#e)" filter="url(#f)"><circle cx="33" cy="33" r="10" fill="#fff"/><circle cx="33" cy="33" r="10" fill="#F81F2C" fill-opacity=".1"/><circle cx="33" cy="33" r="9.5" stroke="#F81F2C"/></g><g clip-path="url(#g)" filter="url(#h)"><circle cx="55" cy="33" r="10" fill="#fff"/><circle cx="55" cy="33" r="10" fill="#F81F2C" fill-opacity=".1"/><circle cx="55" cy="33" r="9.5" stroke="#F81F2C"/></g><defs><clipPath id="a"><path fill="#fff" d="M22 0h22v22H22z"/></clipPath><clipPath id="c"><path fill="#fff" d="M44 0h22v22H44z"/></clipPath><clipPath id="e"><path fill="#fff" d="M22 22h22v22H22z"/></clipPath><clipPath id="g"><path fill="#fff" d="M44 22h22v22H44z"/></clipPath><filter id="b" width="22" height="22" x="22" y="0" color-interpolation-filters="sRGB" filterUnits="userSpaceOnUse"><feFlood flood-opacity="0" result="BackgroundImageFix"/><feBlend in="SourceGraphic" in2="BackgroundImageFix" result="shape"/><feGaussianBlur result="effect1_foregroundBlur_201_72" stdDeviation=".5"/></filter><filter id="d" width="22" height="22" x="44" y="0" color-interpolation-filters="sRGB" filterUnits="userSpaceOnUse"><feFlood flood-opacity="0" result="BackgroundImageFix"/><feBlend in="SourceGraphic" in2="BackgroundImageFix" result="shape"/><feGaussianBlur result="effect1_foregroundBlur_201_72" stdDeviation=".5"/></filter><filter id="f" width="22" height="22" x="22" y="22" color-interpolation-filters="sRGB" filterUnits="userSpaceOnUse"><feFlood flood-opacity="0" result="BackgroundImageFix"/><feBlend in="SourceGraphic" in2="BackgroundImageFix" result="shape"/><feGaussianBlur result="effect1_foregroundBlur_201_72" stdDeviation=".5"/></filter><filter id="h" width="22" height="22" x="44" y="22" color-interpolation-filters="sRGB" filterUnits="userSpaceOnUse"><feFlood flood-opacity="0" result="BackgroundImageFix"/><feBlend in="SourceGraphic" in2="BackgroundImageFix" result="shape"/><feGaussianBlur result="effect1_foregroundBlur_201_72" stdDeviation=".5"/></filter></defs></svg>