<svg xmlns="http://www.w3.org/2000/svg" width="88" height="44" fill="none"><g clip-path="url(#a)"><g clip-path="url(#b)" filter="url(#c)"><circle cx="77" cy="11" r="10" fill="#fff"/><circle cx="77" cy="11" r="10" fill="#00A3FF" fill-opacity=".1"/><circle cx="77" cy="11" r="9.5" stroke="#00A3FF"/></g><g clip-path="url(#d)" filter="url(#e)"><circle cx="22" cy="11" r="10" fill="#fff"/><circle cx="22" cy="11" r="10" fill="#00A3FF" fill-opacity=".1"/><circle cx="22" cy="11" r="9.5" stroke="#00A3FF"/></g><g clip-path="url(#f)" filter="url(#g)"><circle cx="11" cy="33" r="10" fill="#fff"/><circle cx="11" cy="33" r="10" fill="#00A3FF" fill-opacity=".1"/><circle cx="11" cy="33" r="9.5" stroke="#00A3FF"/></g><g clip-path="url(#h)" filter="url(#i)"><circle cx="33" cy="33" r="10" fill="#fff"/><circle cx="33" cy="33" r="10" fill="#00A3FF" fill-opacity=".1"/><circle cx="33" cy="33" r="9.5" stroke="#00A3FF"/></g><g clip-path="url(#j)" filter="url(#k)"><circle cx="55" cy="11" r="10" fill="#fff"/><circle cx="55" cy="11" r="10" fill="#00A3FF" fill-opacity=".1"/><circle cx="55" cy="11" r="9.5" stroke="#00A3FF"/></g><g clip-path="url(#l)" filter="url(#m)"><circle cx="55" cy="33" r="10" fill="#fff"/><circle cx="55" cy="33" r="10" fill="#00A3FF" fill-opacity=".1"/><circle cx="55" cy="33" r="9.5" stroke="#00A3FF"/></g><g clip-path="url(#n)" filter="url(#o)"><circle cx="77" cy="33" r="10" fill="#fff"/><circle cx="77" cy="33" r="10" fill="#00A3FF" fill-opacity=".1"/><circle cx="77" cy="33" r="9.5" stroke="#00A3FF"/></g></g><defs><clipPath id="a"><path fill="#fff" d="M0 0h88v44H0z"/></clipPath><clipPath id="b"><path fill="#fff" d="M66 0h22v22H66z"/></clipPath><clipPath id="d"><path fill="#fff" d="M11 0h22v22H11z"/></clipPath><clipPath id="f"><path fill="#fff" d="M0 22h22v22H0z"/></clipPath><clipPath id="h"><path fill="#fff" d="M22 22h22v22H22z"/></clipPath><clipPath id="j"><path fill="#fff" d="M44 0h22v22H44z"/></clipPath><clipPath id="l"><path fill="#fff" d="M44 22h22v22H44z"/></clipPath><clipPath id="n"><path fill="#fff" d="M66 22h22v22H66z"/></clipPath><filter id="c" width="22" height="22" x="66" y="0" color-interpolation-filters="sRGB" filterUnits="userSpaceOnUse"><feFlood flood-opacity="0" result="BackgroundImageFix"/><feBlend in="SourceGraphic" in2="BackgroundImageFix" result="shape"/><feGaussianBlur result="effect1_foregroundBlur_201_113" stdDeviation=".5"/></filter><filter id="e" width="22" height="22" x="11" y="0" color-interpolation-filters="sRGB" filterUnits="userSpaceOnUse"><feFlood flood-opacity="0" result="BackgroundImageFix"/><feBlend in="SourceGraphic" in2="BackgroundImageFix" result="shape"/><feGaussianBlur result="effect1_foregroundBlur_201_113" stdDeviation=".5"/></filter><filter id="g" width="22" height="22" x="0" y="22" color-interpolation-filters="sRGB" filterUnits="userSpaceOnUse"><feFlood flood-opacity="0" result="BackgroundImageFix"/><feBlend in="SourceGraphic" in2="BackgroundImageFix" result="shape"/><feGaussianBlur result="effect1_foregroundBlur_201_113" stdDeviation=".5"/></filter><filter id="i" width="22" height="22" x="22" y="22" color-interpolation-filters="sRGB" filterUnits="userSpaceOnUse"><feFlood flood-opacity="0" result="BackgroundImageFix"/><feBlend in="SourceGraphic" in2="BackgroundImageFix" result="shape"/><feGaussianBlur result="effect1_foregroundBlur_201_113" stdDeviation=".5"/></filter><filter id="k" width="22" height="22" x="44" y="0" color-interpolation-filters="sRGB" filterUnits="userSpaceOnUse"><feFlood flood-opacity="0" result="BackgroundImageFix"/><feBlend in="SourceGraphic" in2="BackgroundImageFix" result="shape"/><feGaussianBlur result="effect1_foregroundBlur_201_113" stdDeviation=".5"/></filter><filter id="m" width="22" height="22" x="44" y="22" color-interpolation-filters="sRGB" filterUnits="userSpaceOnUse"><feFlood flood-opacity="0" result="BackgroundImageFix"/><feBlend in="SourceGraphic" in2="BackgroundImageFix" result="shape"/><feGaussianBlur result="effect1_foregroundBlur_201_113" stdDeviation=".5"/></filter><filter id="o" width="22" height="22" x="66" y="22" color-interpolation-filters="sRGB" filterUnits="userSpaceOnUse"><feFlood flood-opacity="0" result="BackgroundImageFix"/><feBlend in="SourceGraphic" in2="BackgroundImageFix" result="shape"/><feGaussianBlur result="effect1_foregroundBlur_201_113" stdDeviation=".5"/></filter></defs></svg>