<svg xmlns="http://www.w3.org/2000/svg" width="100" height="100" viewBox="0 0 100 100" fill="none">
<path id="RaidPlan_02_2" d="M49.6 23.5C49.6 24.3284 50.2716 25 51.1 25C51.9284 25 52.6 24.3284 52.6 23.5H49.6ZM49.6 12.5V23.5H52.6V12.5H49.6Z" fill="#999999"/>
<path id="RaidPlan_04_2" d="M20.7093 76.5945C21.4267 76.1803 21.6725 75.2629 21.2583 74.5455C20.8441 73.8281 19.9267 73.5823 19.2093 73.9965L20.7093 76.5945ZM11.183 82.0945L20.7093 76.5945L19.2093 73.9965L9.68301 79.4965L11.183 82.0945Z" fill="#999999"/>
<path id="RaidPlan_06_2" d="M81.7471 73.8792C81.0297 73.4649 80.1123 73.7108 79.6981 74.4282C79.2839 75.1456 79.5297 76.063 80.2471 76.4772L81.7471 73.8792ZM91.2734 79.3792L81.7471 73.8792L80.2471 76.4772L89.7734 81.9772L91.2734 79.3792Z" fill="#999999"/>

<path id="RaidPlan_01_1" d="M41.7584 27.3292C41.3879 28.0701 41.6882 28.9712 42.4292 29.3416C43.1702 29.7121 44.0712 29.4118 44.4416 28.6708L41.7584 27.3292ZM57.7584 28.6708C58.1288 29.4118 59.0299 29.7121 59.7708 29.3416C60.5118 28.9712 60.8121 28.0701 60.4416 27.3292L57.7584 28.6708ZM51.1 12L52.4416 11.3292C52.1876 10.821 51.6682 10.5 51.1 10.5C50.5318 10.5 50.0125 10.821 49.7584 11.3292L51.1 12ZM44.4416 28.6708L52.4416 12.6708L49.7584 11.3292L41.7584 27.3292L44.4416 28.6708ZM49.7584 12.6708L57.7584 28.6708L60.4416 27.3292L52.4416 11.3292L49.7584 12.6708Z" fill="#96CBF7"/>
<path id="RaidPlan_03_1" d="M27.9463 81.471C28.7732 81.4214 29.4033 80.7108 29.3537 79.8838C29.3041 79.0569 28.5935 78.4268 27.7665 78.4764L27.9463 81.471ZM21.1082 66.9438C21.5646 66.2524 21.3742 65.322 20.6829 64.8655C19.9916 64.4091 19.0611 64.5995 18.6046 65.2908L21.1082 66.9438ZM10 81.0455L8.74823 80.219C8.43518 80.6931 8.41688 81.3035 8.70096 81.7955C8.98504 82.2875 9.52274 82.5768 10.0899 82.5428L10 81.0455ZM27.7665 78.4764L9.91013 79.5482L10.0899 82.5428L27.9463 81.471L27.7665 78.4764ZM11.2518 81.872L21.1082 66.9438L18.6046 65.2908L8.74823 80.219L11.2518 81.872Z" fill="#96CBF7"/>
<path id="RaidPlan_05_1" d="M82.3518 65.1735C81.8953 64.4822 80.9648 64.2918 80.2735 64.7482C79.5822 65.2047 79.3918 66.1352 79.8482 66.8265L82.3518 65.1735ZM73.1899 78.3591C72.3629 78.3095 71.6523 78.9396 71.6027 79.7665C71.5531 80.5935 72.1832 81.3041 73.0101 81.3537L73.1899 78.3591ZM90.9564 80.9282L90.8665 82.4255C91.4337 82.4595 91.9714 82.1702 92.2554 81.6782C92.5395 81.1862 92.5212 80.5759 92.2082 80.1017L90.9564 80.9282ZM79.8482 66.8265L89.7046 81.7547L92.2082 80.1017L82.3518 65.1735L79.8482 66.8265ZM91.0463 79.4309L73.1899 78.3591L73.0101 81.3537L90.8665 82.4255L91.0463 79.4309Z" fill="#96CBF7"/>
</svg>