<svg width="100" height="100" viewBox="0 0 100 100" fill="none" xmlns="http://www.w3.org/2000/svg">
<path id="RaidPlan_01_1" d="M22.7335 6.0176C22.191 5.39157 21.2436 5.3239 20.6176 5.86647C19.9916 6.40903 19.9239 7.35636 20.4665 7.9824L22.7335 6.0176ZM20.4665 30.0176C19.9239 30.6436 19.9916 31.591 20.6176 32.1335C21.2436 32.6761 22.191 32.6084 22.7335 31.9824L20.4665 30.0176ZM32 19L33.1335 19.9824C33.6222 19.4186 33.6222 18.5814 33.1335 18.0176L32 19ZM20.4665 7.9824L30.8665 19.9824L33.1335 18.0176L22.7335 6.0176L20.4665 7.9824ZM30.8665 18.0176L20.4665 30.0176L22.7335 31.9824L33.1335 19.9824L30.8665 18.0176Z" fill="#D9CBAD"/>
<path id="RaidPlan_02_2" d="M13.1335 6.0176C12.591 5.39157 11.6436 5.3239 11.0176 5.86647C10.3916 6.40903 10.3239 7.35636 10.8665 7.9824L13.1335 6.0176ZM10.8665 30.0176C10.3239 30.6436 10.3916 31.591 11.0176 32.1335C11.6436 32.6761 12.591 32.6084 13.1335 31.9824L10.8665 30.0176ZM22.4 19L23.5335 19.9824C24.0222 19.4186 24.0222 18.5814 23.5335 18.0176L22.4 19ZM10.8665 7.9824L21.2665 19.9824L23.5335 18.0176L13.1335 6.0176L10.8665 7.9824ZM21.2665 18.0176L10.8665 30.0176L13.1335 31.9824L23.5335 19.9824L21.2665 18.0176Z" fill="#D9CBAD"/>
<path id="RaidPlan_03_1" d="M22.7335 37.0176C22.191 36.3916 21.2436 36.3239 20.6176 36.8665C19.9916 37.409 19.9239 38.3564 20.4665 38.9824L22.7335 37.0176ZM20.4665 61.0176C19.9239 61.6436 19.9916 62.591 20.6176 63.1335C21.2436 63.6761 22.191 63.6084 22.7335 62.9824L20.4665 61.0176ZM32 50L33.1335 50.9824C33.6222 50.4186 33.6222 49.5814 33.1335 49.0176L32 50ZM20.4665 38.9824L30.8665 50.9824L33.1335 49.0176L22.7335 37.0176L20.4665 38.9824ZM30.8665 49.0176L20.4665 61.0176L22.7335 62.9824L33.1335 50.9824L30.8665 49.0176Z" fill="#D9CBAD"/>
<path id="RaidPlan_04_2" d="M13.1335 37.0176C12.591 36.3916 11.6436 36.3239 11.0176 36.8665C10.3916 37.409 10.3239 38.3564 10.8665 38.9824L13.1335 37.0176ZM10.8665 61.0176C10.3239 61.6436 10.3916 62.591 11.0176 63.1335C11.6436 63.6761 12.591 63.6084 13.1335 62.9824L10.8665 61.0176ZM22.4 50L23.5335 50.9824C24.0222 50.4186 24.0222 49.5814 23.5335 49.0176L22.4 50ZM10.8665 38.9824L21.2665 50.9824L23.5335 49.0176L13.1335 37.0176L10.8665 38.9824ZM21.2665 49.0176L10.8665 61.0176L13.1335 62.9824L23.5335 50.9824L21.2665 49.0176Z" fill="#D9CBAD"/>
<path id="RaidPlan_05_1" d="M22.7335 68.0176C22.191 67.3916 21.2436 67.3239 20.6176 67.8665C19.9916 68.409 19.9239 69.3564 20.4665 69.9824L22.7335 68.0176ZM20.4665 92.0176C19.9239 92.6436 19.9916 93.591 20.6176 94.1335C21.2436 94.6761 22.191 94.6084 22.7335 93.9824L20.4665 92.0176ZM32 81L33.1335 81.9824C33.6222 81.4186 33.6222 80.5814 33.1335 80.0176L32 81ZM20.4665 69.9824L30.8665 81.9824L33.1335 80.0176L22.7335 68.0176L20.4665 69.9824ZM30.8665 80.0176L20.4665 92.0176L22.7335 93.9824L33.1335 81.9824L30.8665 80.0176Z" fill="#D9CBAD"/>
<path id="RaidPlan_06_2" d="M13.1335 68.0176C12.591 67.3916 11.6436 67.3239 11.0176 67.8665C10.3916 68.409 10.3239 69.3564 10.8665 69.9824L13.1335 68.0176ZM10.8665 92.0176C10.3239 92.6436 10.3916 93.591 11.0176 94.1335C11.6436 94.6761 12.591 94.6084 13.1335 93.9824L10.8665 92.0176ZM22.4 81L23.5335 81.9824C24.0222 81.4186 24.0222 80.5814 23.5335 80.0176L22.4 81ZM10.8665 69.9824L21.2665 81.9824L23.5335 80.0176L13.1335 68.0176L10.8665 69.9824ZM21.2665 80.0176L10.8665 92.0176L13.1335 93.9824L23.5335 81.9824L21.2665 80.0176Z" fill="#D9CBAD"/>
<path id="RaidPlan_07_1" d="M77.2665 31.9824C77.809 32.6084 78.7564 32.6761 79.3824 32.1335C80.0084 31.591 80.0761 30.6436 79.5335 30.0176L77.2665 31.9824ZM79.5335 7.9824C80.0761 7.35636 80.0084 6.40903 79.3824 5.86647C78.7564 5.32391 77.809 5.39157 77.2665 6.01761L79.5335 7.9824ZM68 19L66.8665 18.0176C66.3778 18.5814 66.3778 19.4186 66.8665 19.9824L68 19ZM79.5335 30.0176L69.1335 18.0176L66.8665 19.9824L77.2665 31.9824L79.5335 30.0176ZM69.1335 19.9824L79.5335 7.9824L77.2665 6.01761L66.8665 18.0176L69.1335 19.9824Z" fill="#D9CBAD"/>
<path id="RaidPlan_08_2" d="M86.8665 31.9824C87.409 32.6084 88.3564 32.6761 88.9824 32.1335C89.6084 31.591 89.6761 30.6436 89.1335 30.0176L86.8665 31.9824ZM89.1335 7.9824C89.6761 7.35636 89.6084 6.40903 88.9824 5.86647C88.3564 5.32391 87.409 5.39157 86.8665 6.01761L89.1335 7.9824ZM77.6 19L76.4665 18.0176C75.9778 18.5814 75.9778 19.4186 76.4665 19.9824L77.6 19ZM89.1335 30.0176L78.7335 18.0176L76.4665 19.9824L86.8665 31.9824L89.1335 30.0176ZM78.7335 19.9824L89.1335 7.9824L86.8665 6.01761L76.4665 18.0176L78.7335 19.9824Z" fill="#D9CBAD"/>
<path id="RaidPlan_09_1" d="M77.2665 62.9824C77.809 63.6084 78.7564 63.6761 79.3824 63.1335C80.0084 62.591 80.0761 61.6436 79.5335 61.0176L77.2665 62.9824ZM79.5335 38.9824C80.0761 38.3564 80.0084 37.409 79.3824 36.8665C78.7564 36.3239 77.809 36.3916 77.2665 37.0176L79.5335 38.9824ZM68 50L66.8665 49.0176C66.3778 49.5814 66.3778 50.4186 66.8665 50.9824L68 50ZM79.5335 61.0176L69.1335 49.0176L66.8665 50.9824L77.2665 62.9824L79.5335 61.0176ZM69.1335 50.9824L79.5335 38.9824L77.2665 37.0176L66.8665 49.0176L69.1335 50.9824Z" fill="#D9CBAD"/>
<path id="RaidPlan_10_2" d="M86.8665 62.9824C87.409 63.6084 88.3564 63.6761 88.9824 63.1335C89.6084 62.591 89.6761 61.6436 89.1335 61.0176L86.8665 62.9824ZM89.1335 38.9824C89.6761 38.3564 89.6084 37.409 88.9824 36.8665C88.3564 36.3239 87.409 36.3916 86.8665 37.0176L89.1335 38.9824ZM77.6 50L76.4665 49.0176C75.9778 49.5814 75.9778 50.4186 76.4665 50.9824L77.6 50ZM89.1335 61.0176L78.7335 49.0176L76.4665 50.9824L86.8665 62.9824L89.1335 61.0176ZM78.7335 50.9824L89.1335 38.9824L86.8665 37.0176L76.4665 49.0176L78.7335 50.9824Z" fill="#D9CBAD"/>
<path id="RaidPlan_11_1" d="M77.2665 93.9824C77.809 94.6084 78.7564 94.6761 79.3824 94.1335C80.0084 93.591 80.0761 92.6436 79.5335 92.0176L77.2665 93.9824ZM79.5335 69.9824C80.0761 69.3564 80.0084 68.409 79.3824 67.8665C78.7564 67.3239 77.809 67.3916 77.2665 68.0176L79.5335 69.9824ZM68 81L66.8665 80.0176C66.3778 80.5814 66.3778 81.4186 66.8665 81.9824L68 81ZM79.5335 92.0176L69.1335 80.0176L66.8665 81.9824L77.2665 93.9824L79.5335 92.0176ZM69.1335 81.9824L79.5335 69.9824L77.2665 68.0176L66.8665 80.0176L69.1335 81.9824Z" fill="#D9CBAD"/>
<path id="RaidPlan_12_2" d="M86.8665 93.9824C87.409 94.6084 88.3564 94.6761 88.9824 94.1335C89.6084 93.591 89.6761 92.6436 89.1335 92.0176L86.8665 93.9824ZM89.1335 69.9824C89.6761 69.3564 89.6084 68.409 88.9824 67.8665C88.3564 67.3239 87.409 67.3916 86.8665 68.0176L89.1335 69.9824ZM77.6 81L76.4665 80.0176C75.9778 80.5814 75.9778 81.4186 76.4665 81.9824L77.6 81ZM89.1335 92.0176L78.7335 80.0176L76.4665 81.9824L86.8665 93.9824L89.1335 92.0176ZM78.7335 81.9824L89.1335 69.9824L86.8665 68.0176L76.4665 80.0176L78.7335 81.9824Z" fill="#D9CBAD"/>
</svg>
