
<svg width="100" height="100" viewBox="0 0 100 100" fill="none" xmlns="http://www.w3.org/2000/svg">
<path d="M100 50C100 77.6142 77.6142 100 50 100C22.3858 100 0 77.6142 0 50C0 22.3858 22.3858 0 50 0C77.6142 0 100 22.3858 100 50ZM12.5 50C12.5 70.7107 29.2893 87.5 50 87.5C70.7107 87.5 87.5 70.7107 87.5 50C87.5 29.2893 70.7107 12.5 50 12.5C29.2893 12.5 12.5 29.2893 12.5 50Z" fill="url(#RaidPlan_02_2)"/>
<circle id="RaidPlan_01_1" cx="50" cy="50" r="8" fill="#DD6E7A"/>
<defs>
<radialGradient id="RaidPlan_02_2" cx="0" cy="0" r="1" gradientUnits="userSpaceOnUse" gradientTransform="translate(50 50) rotate(90) scale(50)">
<stop offset="0.770833" stop-color="#DD6E7A" stop-opacity="0"/>
<stop offset="1" stop-color="#DD6E7A"/>
</radialGradient>
</defs>
</svg>
