
<svg width="100" height="100" viewBox="0 0 100 100" fill="none" xmlns="http://www.w3.org/2000/svg">
<path id="RaidPlan_01_1" d="M40.9528 11.726C40.3597 12.3043 40.3477 13.254 40.926 13.8472C41.5043 14.4403 42.454 14.4523 43.0472 13.874L40.9528 11.726ZM56.9529 13.874C57.546 14.4523 58.4957 14.4403 59.074 13.8472C59.6523 13.254 59.6403 12.3043 59.0472 11.726L56.9529 13.874ZM50 5L51.0472 3.926C50.4646 3.358 49.5354 3.358 48.9528 3.926L50 5ZM43.0472 13.874L51.0472 6.074L48.9528 3.926L40.9528 11.726L43.0472 13.874ZM48.9528 6.074L56.9529 13.874L59.0472 11.726L51.0472 3.926L48.9528 6.074Z" fill="#D9CBAD"/>
<path id="RaidPlan_02_2" d="M40.9528 18.926C40.3597 19.5043 40.3477 20.454 40.926 21.0472C41.5043 21.6403 42.454 21.6523 43.0472 21.074L40.9528 18.926ZM56.9529 21.074C57.546 21.6523 58.4957 21.6403 59.074 21.0472C59.6523 20.454 59.6403 19.5043 59.0472 18.926L56.9529 21.074ZM50 12.2L51.0472 11.126C50.4646 10.558 49.5354 10.558 48.9529 11.126L50 12.2ZM43.0472 21.074L51.0472 13.274L48.9529 11.126L40.9528 18.926L43.0472 21.074ZM48.9529 13.274L56.9529 21.074L59.0472 18.926L51.0472 11.126L48.9529 13.274Z" fill="#D9CBAD"/>
<path id="RaidPlan_03_1" d="M71.1102 16.0156C70.2818 16.0051 69.6018 16.6681 69.5913 17.4964C69.5808 18.3248 70.2438 19.0048 71.0722 19.0153L71.1102 16.0156ZM80.905 28.8481C80.9155 29.6765 81.5955 30.3395 82.4239 30.329C83.2522 30.3185 83.9152 29.6385 83.9048 28.8102L80.905 28.8481ZM82.2635 17.6569L83.7633 17.6379C83.753 16.8243 83.096 16.1673 82.2824 16.157L82.2635 17.6569ZM71.0722 19.0153L82.2445 19.1567L82.2824 16.157L71.1102 16.0156L71.0722 19.0153ZM80.7636 17.6758L80.905 28.8481L83.9048 28.8102L83.7633 17.6379L80.7636 17.6758Z" fill="#D9CBAD"/>
<path id="RaidPlan_04_2" d="M66.019 21.1067C65.1906 21.0962 64.5106 21.7592 64.5001 22.5876C64.4896 23.416 65.1527 24.096 65.981 24.1065L66.019 21.1067ZM75.8138 33.9393C75.8243 34.7676 76.5043 35.4307 77.3327 35.4202C78.1611 35.4097 78.8241 34.7297 78.8136 33.9013L75.8138 33.9393ZM77.1723 22.748L78.6722 22.729C78.6619 21.9155 78.0048 21.2584 77.1913 21.2481L77.1723 22.748ZM65.981 24.1065L77.1533 24.2479L77.1913 21.2481L66.019 21.1067L65.981 24.1065ZM75.6724 22.767L75.8138 33.9393L78.8136 33.9013L78.6722 22.729L75.6724 22.767Z" fill="#D9CBAD"/>
<path id="RaidPlan_05_1" d="M16.0156 28.8102C16.0051 29.6385 16.6681 30.3185 17.4964 30.329C18.3248 30.3395 19.0048 29.6765 19.0153 28.8481L16.0156 28.8102ZM28.8481 19.0153C29.6765 19.0048 30.3395 18.3248 30.329 17.4965C30.3185 16.6681 29.6385 16.0051 28.8102 16.0156L28.8481 19.0153ZM17.6569 17.6569L17.6379 16.157C16.8243 16.1673 16.1673 16.8243 16.157 17.6379L17.6569 17.6569ZM19.0153 28.8481L19.1567 17.6759L16.157 17.6379L16.0156 28.8102L19.0153 28.8481ZM17.6758 19.1567L28.8481 19.0153L28.8102 16.0156L17.6379 16.157L17.6758 19.1567Z" fill="#D9CBAD"/>
<path id="RaidPlan_06_2" d="M21.1067 33.9013C21.0962 34.7297 21.7592 35.4097 22.5876 35.4202C23.416 35.4307 24.096 34.7677 24.1065 33.9393L21.1067 33.9013ZM33.9393 24.1065C34.7677 24.096 35.4307 23.416 35.4202 22.5876C35.4097 21.7593 34.7297 21.0962 33.9013 21.1067L33.9393 24.1065ZM22.748 22.748L22.729 21.2481C21.9155 21.2584 21.2584 21.9155 21.2481 22.729L22.748 22.748ZM24.1065 33.9393L24.2479 22.767L21.2481 22.729L21.1067 33.9013L24.1065 33.9393ZM22.767 24.2479L33.9393 24.1065L33.9013 21.1067L22.729 21.2481L22.767 24.2479Z" fill="#D9CBAD"/>
<path id="RaidPlan_07_1" d="M11.726 59.0472C12.3043 59.6403 13.254 59.6523 13.8472 59.074C14.4403 58.4957 14.4523 57.546 13.874 56.9528L11.726 59.0472ZM13.874 43.0471C14.4523 42.454 14.4403 41.5043 13.8472 40.926C13.254 40.3477 12.3043 40.3597 11.726 40.9528L13.874 43.0471ZM5 50L3.926 48.9528C3.358 49.5354 3.358 50.4646 3.926 51.0472L5 50ZM13.874 56.9528L6.074 48.9528L3.926 51.0472L11.726 59.0472L13.874 56.9528ZM6.074 51.0472L13.874 43.0471L11.726 40.9528L3.926 48.9528L6.074 51.0472Z" fill="#D9CBAD"/>
<path id="RaidPlan_08_2" d="M18.926 59.0472C19.5043 59.6403 20.454 59.6523 21.0471 59.074C21.6403 58.4957 21.6523 57.546 21.074 56.9528L18.926 59.0472ZM21.074 43.0471C21.6523 42.454 21.6403 41.5043 21.0471 40.926C20.454 40.3477 19.5043 40.3597 18.926 40.9528L21.074 43.0471ZM12.2 50L11.126 48.9528C10.558 49.5354 10.558 50.4646 11.126 51.0471L12.2 50ZM21.074 56.9528L13.274 48.9528L11.126 51.0471L18.926 59.0472L21.074 56.9528ZM13.274 51.0471L21.074 43.0471L18.926 40.9528L11.126 48.9528L13.274 51.0471Z" fill="#D9CBAD"/>
<path id="RaidPlan_09_1" d="M88.274 40.9528C87.6957 40.3597 86.746 40.3477 86.1528 40.926C85.5597 41.5043 85.5477 42.454 86.126 43.0472L88.274 40.9528ZM86.126 56.9529C85.5477 57.546 85.5597 58.4957 86.1528 59.074C86.746 59.6523 87.6957 59.6403 88.274 59.0472L86.126 56.9529ZM95 50L96.074 51.0472C96.642 50.4646 96.642 49.5354 96.074 48.9528L95 50ZM86.126 43.0472L93.926 51.0472L96.074 48.9528L88.274 40.9528L86.126 43.0472ZM93.926 48.9528L86.126 56.9529L88.274 59.0472L96.074 51.0472L93.926 48.9528Z" fill="#D9CBAD"/>
<path id="RaidPlan_10_2" d="M81.074 40.9528C80.4957 40.3597 79.546 40.3477 78.9528 40.926C78.3597 41.5043 78.3477 42.454 78.926 43.0472L81.074 40.9528ZM78.926 56.9529C78.3477 57.546 78.3597 58.4957 78.9528 59.074C79.546 59.6523 80.4957 59.6403 81.074 59.0472L78.926 56.9529ZM87.8 50L88.874 51.0472C89.442 50.4646 89.442 49.5354 88.874 48.9529L87.8 50ZM78.926 43.0472L86.726 51.0472L88.874 48.9529L81.074 40.9528L78.926 43.0472ZM86.726 48.9529L78.926 56.9529L81.074 59.0472L88.874 51.0472L86.726 48.9529Z" fill="#D9CBAD"/>
<path id="RaidPlan_11_1" d="M28.8102 83.9048C29.6385 83.9152 30.3185 83.2522 30.329 82.4239C30.3395 81.5955 29.6765 80.9155 28.8481 80.905L28.8102 83.9048ZM19.0153 71.0722C19.0048 70.2438 18.3248 69.5808 17.4965 69.5913C16.6681 69.6018 16.0051 70.2818 16.0156 71.1101L19.0153 71.0722ZM17.6569 82.2634L16.157 82.2824C16.1673 83.096 16.8243 83.753 17.6379 83.7633L17.6569 82.2634ZM28.8481 80.905L17.6758 80.7636L17.6379 83.7633L28.8102 83.9048L28.8481 80.905ZM19.1567 82.2445L19.0153 71.0722L16.0156 71.1101L16.157 82.2824L19.1567 82.2445Z" fill="#D9CBAD"/>
<path id="RaidPlan_12_2" d="M33.9013 78.8136C34.7297 78.8241 35.4097 78.161 35.4202 77.3327C35.4307 76.5043 34.7677 75.8243 33.9393 75.8138L33.9013 78.8136ZM24.1065 65.981C24.096 65.1526 23.416 64.4896 22.5876 64.5001C21.7593 64.5106 21.0962 65.1906 21.1067 66.019L24.1065 65.981ZM22.748 77.1723L21.2481 77.1913C21.2584 78.0048 21.9155 78.6619 22.729 78.6722L22.748 77.1723ZM33.9393 75.8138L22.767 75.6724L22.729 78.6722L33.9013 78.8136L33.9393 75.8138ZM24.2479 77.1533L24.1065 65.981L21.1067 66.019L21.2481 77.1913L24.2479 77.1533Z" fill="#D9CBAD"/>
<path id="RaidPlan_13_1" d="M59.0472 88.274C59.6403 87.6957 59.6523 86.746 59.074 86.1528C58.4957 85.5597 57.546 85.5477 56.9528 86.126L59.0472 88.274ZM43.0471 86.126C42.454 85.5477 41.5043 85.5597 40.926 86.1528C40.3477 86.746 40.3597 87.6957 40.9528 88.274L43.0471 86.126ZM50 95L48.9528 96.074C49.5354 96.642 50.4646 96.642 51.0472 96.074L50 95ZM56.9528 86.126L48.9528 93.926L51.0472 96.074L59.0472 88.274L56.9528 86.126ZM51.0472 93.926L43.0471 86.126L40.9528 88.274L48.9528 96.074L51.0472 93.926Z" fill="#D9CBAD"/>
<path id="RaidPlan_14_2" d="M59.0472 81.074C59.6403 80.4957 59.6523 79.546 59.074 78.9529C58.4957 78.3597 57.546 78.3477 56.9528 78.926L59.0472 81.074ZM43.0471 78.926C42.454 78.3477 41.5043 78.3597 40.926 78.9529C40.3477 79.546 40.3597 80.4957 40.9528 81.074L43.0471 78.926ZM50 87.8L48.9528 88.874C49.5354 89.442 50.4646 89.442 51.0471 88.874L50 87.8ZM56.9528 78.926L48.9528 86.726L51.0471 88.874L59.0472 81.074L56.9528 78.926ZM51.0471 86.726L43.0471 78.926L40.9528 81.074L48.9528 88.874L51.0471 86.726Z" fill="#D9CBAD"/>
<path id="RaidPlan_15_1" d="M83.9048 71.1102C83.9152 70.2818 83.2522 69.6018 82.4239 69.5913C81.5955 69.5808 80.9155 70.2438 80.905 71.0722L83.9048 71.1102ZM71.0722 80.905C70.2438 80.9155 69.5808 81.5955 69.5913 82.4239C69.6018 83.2522 70.2818 83.9152 71.1102 83.9048L71.0722 80.905ZM82.2635 82.2635L82.2824 83.7633C83.096 83.753 83.753 83.096 83.7633 82.2824L82.2635 82.2635ZM80.905 71.0722L80.7636 82.2445L83.7633 82.2824L83.9048 71.1102L80.905 71.0722ZM82.2445 80.7636L71.0722 80.905L71.1102 83.9048L82.2824 83.7633L82.2445 80.7636Z" fill="#D9CBAD"/>
<path id="RaidPlan_16_2" d="M78.8136 66.019C78.8241 65.1906 78.1611 64.5106 77.3327 64.5001C76.5043 64.4896 75.8243 65.1526 75.8138 65.981L78.8136 66.019ZM65.981 75.8138C65.1527 75.8243 64.4896 76.5043 64.5001 77.3327C64.5106 78.161 65.1906 78.8241 66.019 78.8136L65.981 75.8138ZM77.1723 77.1723L77.1913 78.6722C78.0048 78.6619 78.6619 78.0048 78.6722 77.1913L77.1723 77.1723ZM75.8138 65.981L75.6724 77.1533L78.6722 77.1913L78.8136 66.019L75.8138 65.981ZM77.1533 75.6724L65.981 75.8138L66.019 78.8136L77.1913 78.6722L77.1533 75.6724Z" fill="#D9CBAD"/>
</svg>